<svg id="svg" version="1.1" xmlns="http://www.w3.org/2000/svg" xmlns:xlink="http://www.w3.org/1999/xlink" width="400" height="409.0909090909091" viewBox="0, 0, 400,409.0909090909091"><g id="svgg"><path id="path0" d="M190.400 5.842 C 183.266 6.181,177.088 6.919,168.600 8.447 C 163.739 9.321,162.045 9.679,155.200 11.276 C 116.586 20.284,78.672 44.844,50.037 79.400 C 45.558 84.805,45.844 84.438,42.253 89.379 C 37.438 96.003,32.947 103.032,27.823 111.961 C 26.448 114.358,20.000 127.412,20.000 127.799 C 20.000 127.897,19.566 128.927,19.035 130.088 C 15.559 137.693,9.739 155.238,8.250 162.600 C 8.116 163.260,7.815 164.700,7.581 165.800 C 5.213 176.902,4.653 182.981,5.794 185.188 C 8.125 189.697,15.034 191.487,19.136 188.644 C 22.160 186.548,22.892 184.916,24.621 176.400 C 27.296 163.230,31.676 148.897,36.111 138.800 C 36.643 137.590,37.420 135.790,37.839 134.800 C 38.902 132.285,45.245 119.818,46.691 117.400 C 71.999 75.081,109.984 44.886,154.600 31.620 C 178.806 24.422,210.668 23.507,236.800 29.260 C 248.894 31.922,253.710 33.504,268.400 39.636 C 283.874 46.097,303.524 58.801,318.294 71.895 C 321.912 75.103,321.258 75.349,328.604 68.013 C 335.664 60.964,335.406 61.496,332.900 59.166 C 302.796 31.181,270.039 14.897,230.000 8.013 C 220.603 6.397,201.150 5.331,190.400 5.842 M129.400 74.660 C 118.227 87.442,111.597 106.700,111.546 126.515 L 111.526 134.430 112.914 137.315 C 115.475 142.639,118.093 144.852,126.838 149.080 C 135.510 153.273,137.833 156.836,133.545 159.369 C 131.504 160.574,122.795 157.211,116.303 152.710 C 114.689 151.591,114.396 152.078,115.034 154.815 C 117.614 165.873,126.975 182.546,138.381 196.400 C 149.383 209.763,150.872 211.802,153.712 217.400 C 155.356 220.641,157.546 225.878,158.029 227.725 C 158.213 228.426,158.820 230.710,159.378 232.800 C 159.936 234.890,160.394 237.151,160.396 237.824 C 160.403 240.091,161.146 240.540,163.000 239.400 C 165.767 237.699,167.763 236.818,168.871 236.809 C 170.864 236.792,171.106 236.352,174.503 226.600 C 176.817 219.953,177.016 219.282,178.377 213.514 C 179.385 209.244,179.404 208.195,178.485 207.523 C 177.430 206.751,172.083 199.503,168.277 193.686 C 158.434 178.639,153.089 167.202,149.264 153.000 C 146.839 143.996,146.663 142.732,146.559 133.608 L 146.462 125.017 143.931 122.826 C 129.022 109.922,123.263 89.015,130.667 74.673 C 131.659 72.751,131.074 72.745,129.400 74.660 M340.600 74.184 C 340.380 74.264,339.708 74.438,339.107 74.571 C 333.782 75.744,332.358 83.601,336.794 87.334 C 342.819 92.403,351.878 83.360,347.079 77.068 C 345.548 75.061,342.236 73.586,340.600 74.184 M353.234 96.966 L 346.674 103.535 350.264 109.067 C 356.481 118.648,361.245 127.407,365.831 137.688 C 371.823 151.123,375.476 162.679,378.794 178.704 C 380.107 185.044,381.542 187.538,384.846 189.224 C 389.283 191.487,396.362 188.597,397.595 184.019 C 398.603 180.276,394.888 161.853,390.413 148.400 C 387.972 141.060,387.681 140.258,385.117 133.800 C 383.025 128.527,375.152 112.801,372.203 108.000 C 370.918 105.910,368.952 102.703,367.834 100.873 C 365.611 97.237,360.801 90.734,360.182 90.527 C 359.968 90.456,356.841 93.354,353.234 96.966 M307.400 110.965 C 304.940 112.058,303.600 114.344,303.600 117.446 C 303.600 124.797,313.903 126.401,316.495 119.453 C 318.581 113.859,312.873 108.532,307.400 110.965 M172.800 140.767 C 172.800 143.463,172.327 143.002,181.800 149.537 C 183.560 150.751,186.021 152.522,187.270 153.472 C 190.463 155.904,190.533 155.870,195.711 149.463 C 198.036 146.588,198.057 146.149,195.900 145.591 C 190.416 144.171,187.517 143.319,181.537 141.371 C 173.284 138.682,172.800 138.649,172.800 140.767 M290.968 144.064 C 281.076 153.140,291.724 171.417,308.872 174.793 C 311.577 175.325,311.243 174.593,307.311 171.377 C 295.040 161.341,289.699 151.328,292.754 144.087 C 293.578 142.134,293.079 142.128,290.968 144.064 M100.000 148.472 C 92.421 150.678,85.954 153.253,83.800 154.924 C 83.069 155.491,83.459 155.525,88.292 155.312 C 94.128 155.056,100.838 155.682,104.290 156.806 C 106.660 157.577,106.841 157.517,106.556 156.053 C 106.444 155.474,106.228 153.470,106.076 151.600 L 105.800 148.200 103.600 148.132 C 102.390 148.095,100.770 148.247,100.000 148.472 M108.200 171.640 C 98.825 172.979,89.799 175.325,81.111 178.680 L 78.422 179.718 75.619 177.073 C 71.689 173.366,68.100 171.959,63.981 172.512 C 62.663 172.689,57.156 175.521,56.400 176.411 C 56.290 176.540,55.750 176.953,55.200 177.329 C 51.359 179.950,42.128 191.195,43.056 192.123 C 43.172 192.239,44.197 191.463,45.333 190.398 C 55.433 180.943,66.265 177.030,73.321 180.287 C 75.703 181.386,75.511 181.984,72.136 183.984 C 47.880 198.355,38.007 215.882,38.001 244.580 C 38.000 249.319,38.187 249.461,39.605 245.800 C 41.661 240.490,44.624 235.233,48.170 230.600 C 50.766 227.208,58.398 218.505,60.253 216.820 C 61.324 215.847,63.730 213.612,65.600 211.852 C 79.379 198.884,101.005 184.788,107.104 184.798 C 108.720 184.801,116.003 182.057,116.278 181.342 C 116.601 180.499,111.933 171.192,111.216 171.248 C 110.877 171.275,109.520 171.451,108.200 171.640 M194.667 177.867 C 194.520 178.013,194.400 178.544,194.400 179.046 C 194.400 180.015,194.878 180.437,200.069 184.059 C 207.662 189.356,211.071 191.843,211.984 192.752 C 212.800 193.565,213.751 193.847,217.585 194.414 C 220.125 194.789,222.967 195.225,223.901 195.383 C 227.288 195.956,226.380 194.909,216.600 186.964 C 205.079 177.606,205.108 177.621,199.167 177.609 C 196.838 177.604,194.813 177.720,194.667 177.867 M358.285 186.649 C 358.148 186.786,352.763 187.040,346.318 187.213 C 335.492 187.505,334.311 187.608,330.800 188.569 C 323.603 190.539,318.460 191.371,304.600 192.804 C 291.821 194.125,287.395 195.070,281.006 197.837 C 266.247 204.230,256.403 215.350,249.929 232.946 C 248.037 238.086,247.884 237.367,252.358 244.349 C 253.856 246.687,256.306 250.670,257.804 253.200 C 262.439 261.033,266.198 266.933,266.649 267.083 C 266.937 267.179,267.175 265.194,267.364 261.113 C 267.625 255.517,268.127 251.033,269.146 245.200 C 272.261 227.381,280.790 214.801,294.034 208.494 C 308.272 201.713,324.897 206.139,318.750 215.073 C 317.009 217.603,317.269 217.693,325.600 217.447 C 336.205 217.134,346.676 214.081,353.800 209.223 C 357.227 206.887,361.200 213.332,361.200 221.226 C 361.200 223.200,361.547 223.199,363.339 221.215 C 370.269 213.544,370.536 201.093,363.917 194.269 C 363.240 193.571,362.066 191.651,361.309 190.002 C 359.807 186.734,359.045 185.889,358.285 186.649 M99.153 190.978 C 95.887 193.126,90.354 197.248,87.080 199.973 C 63.252 219.795,52.741 235.516,49.030 256.880 C 48.697 258.794,48.334 260.774,48.222 261.280 C 46.030 271.179,47.781 288.468,52.393 302.468 C 54.609 309.195,55.167 310.140,55.186 307.200 C 55.233 299.909,59.517 288.668,63.988 284.107 C 66.079 281.974,66.584 282.205,67.136 285.542 C 71.391 311.308,93.361 336.918,122.000 349.496 C 154.502 363.770,195.816 358.505,224.400 336.445 C 232.070 330.525,232.406 329.971,230.134 326.995 C 227.520 323.572,216.912 306.881,210.690 296.400 C 206.155 288.761,206.743 289.146,203.836 291.924 C 199.706 295.870,193.520 299.554,187.600 301.590 C 181.767 303.597,181.872 303.434,185.313 305.127 C 188.333 306.614,194.709 311.888,197.197 314.957 C 199.379 317.649,202.059 322.009,201.885 322.582 C 201.575 323.600,189.740 328.968,183.400 330.967 C 151.975 340.873,115.298 325.398,99.810 295.697 C 97.315 290.913,97.487 293.305,100.233 301.600 C 102.638 308.864,106.791 317.043,111.198 323.200 C 115.896 329.761,116.230 332.800,112.256 332.800 C 111.325 332.800,107.606 330.654,107.592 330.109 C 107.588 329.939,106.950 329.080,106.175 328.200 C 92.339 312.500,85.996 286.192,90.405 262.800 C 90.841 260.490,91.471 256.890,91.806 254.800 C 92.454 250.760,93.982 243.163,94.228 242.758 C 94.632 242.094,98.400 229.778,98.400 229.122 C 98.400 227.791,96.478 226.400,94.642 226.401 C 89.698 226.406,81.772 236.165,76.875 248.278 C 74.476 254.214,74.106 248.960,76.181 238.400 C 79.361 222.213,90.319 201.695,101.389 191.200 C 104.990 187.786,104.133 187.701,99.153 190.978 M336.434 198.842 C 341.045 200.355,342.781 201.740,341.969 203.258 C 340.320 206.338,332.280 205.750,329.409 202.338 C 326.474 198.850,330.441 196.876,336.434 198.842 M195.228 220.087 C 191.855 228.839,187.565 236.736,186.543 236.077 C 185.998 235.726,183.200 230.326,183.200 229.625 C 183.200 229.206,183.081 229.201,182.600 229.600 C 182.270 229.874,182.000 230.248,182.000 230.431 C 182.000 230.614,181.178 232.690,180.173 235.043 L 178.345 239.321 180.505 241.561 C 185.109 246.335,189.557 251.455,193.226 256.200 C 203.876 269.979,210.538 279.553,217.299 290.800 C 237.329 324.117,242.639 331.098,253.400 338.257 C 274.884 352.551,304.214 351.477,321.542 335.763 C 325.459 332.210,331.756 324.000,330.563 324.000 C 330.424 324.000,329.205 324.834,327.855 325.853 C 315.105 335.474,295.682 336.919,280.951 329.342 C 266.505 321.911,262.653 317.054,229.595 264.600 C 207.537 229.599,198.547 215.864,197.584 215.687 C 197.135 215.604,196.495 216.799,195.228 220.087 M10.400 216.527 C 5.323 219.179,4.269 222.524,5.585 231.800 C 5.803 233.340,6.264 236.850,6.608 239.600 C 10.120 267.636,22.273 297.597,39.694 321.169 C 43.365 326.136,43.017 326.023,45.689 323.102 C 48.770 319.733,48.758 320.063,46.071 312.915 C 44.766 309.442,42.945 304.170,42.026 301.200 C 41.106 298.230,40.017 294.720,39.605 293.400 C 37.438 286.454,30.231 260.948,29.026 255.959 C 26.697 246.323,25.017 236.613,23.995 226.887 C 23.124 218.598,16.337 213.426,10.400 216.527 M386.797 216.350 C 381.863 217.966,380.340 220.408,379.159 228.595 C 377.799 238.028,376.405 244.535,372.815 258.200 C 369.384 271.261,358.066 295.634,351.269 304.600 C 349.924 306.374,349.203 307.872,348.506 310.342 C 347.379 314.337,345.872 318.354,343.720 323.100 C 336.375 339.299,319.153 353.231,300.053 358.426 C 296.834 359.302,293.120 360.562,291.800 361.226 C 290.480 361.891,285.964 364.216,281.765 366.392 C 250.848 382.416,217.297 389.278,184.964 386.193 C 150.148 382.870,117.023 368.509,89.600 344.848 C 87.290 342.855,85.194 341.219,84.943 341.212 C 84.623 341.204,73.249 352.327,71.316 354.538 C 70.920 354.992,78.937 362.001,85.928 367.312 C 98.372 376.768,112.250 384.963,126.400 391.212 C 142.094 398.143,160.759 403.248,177.400 405.159 C 195.015 407.183,216.245 406.717,231.600 403.970 C 246.122 401.371,249.823 400.444,262.200 396.305 C 283.663 389.126,312.365 373.070,326.800 360.167 C 327.570 359.479,329.730 357.587,331.600 355.964 C 365.906 326.183,389.670 283.613,396.000 240.600 C 398.250 225.312,398.273 222.083,396.155 219.305 C 394.317 216.896,389.641 215.419,386.797 216.350 M306.769 239.710 C 301.103 243.528,303.123 251.945,309.790 252.303 C 315.324 252.600,318.659 247.404,316.218 242.286 C 314.687 239.078,309.717 237.722,306.769 239.710 M62.306 327.998 C 54.817 330.253,54.933 340.034,62.473 342.050 C 68.006 343.530,73.261 337.551,71.060 332.281 C 69.713 329.058,65.550 327.021,62.306 327.998 " stroke="none" fill="#25141d" fill-rule="evenodd"></path><path id="path1" d="M186.800 48.272 C 163.754 49.964,145.411 61.717,139.183 78.782 C 132.851 96.132,142.644 113.705,165.096 125.282 C 171.531 128.600,171.321 128.735,169.557 122.400 C 162.793 98.101,183.885 76.120,206.201 84.215 C 223.234 90.393,231.100 112.929,222.366 130.532 C 219.476 136.357,215.369 141.040,203.000 152.614 C 199.260 156.113,196.200 159.158,196.200 159.380 C 196.200 159.601,197.809 161.012,199.776 162.514 C 203.488 165.349,211.259 171.813,215.368 175.484 C 218.215 178.027,217.926 178.006,220.730 175.878 C 221.979 174.931,224.260 173.374,225.800 172.419 C 248.598 158.280,262.038 135.732,261.083 113.226 C 260.741 105.165,258.712 95.146,256.420 90.200 C 251.580 79.756,250.164 77.407,245.000 71.252 C 231.676 55.371,209.480 46.607,186.800 48.272 M146.557 133.539 C 146.664 142.737,146.839 143.996,149.264 153.000 C 153.089 167.202,158.434 178.639,168.277 193.686 C 172.885 200.728,179.600 209.556,179.600 208.571 C 179.600 208.465,180.249 205.471,181.043 201.917 C 183.264 191.975,182.737 189.581,176.858 182.909 C 170.851 176.090,170.400 175.396,170.400 172.964 C 170.400 170.211,170.454 170.214,175.613 173.323 C 188.077 180.834,195.598 187.179,197.987 192.200 C 201.953 200.537,202.434 203.250,200.846 208.350 C 199.036 214.167,197.638 215.304,195.501 212.697 C 191.613 207.952,190.813 205.574,191.632 201.200 C 192.822 194.843,191.726 193.342,188.059 196.306 L 186.600 197.486 186.347 206.243 C 186.079 215.540,185.854 217.028,183.457 225.310 C 182.568 228.380,182.286 229.861,182.647 229.561 C 183.070 229.210,183.200 229.225,183.200 229.625 C 183.200 230.326,185.998 235.726,186.543 236.077 C 187.565 236.736,191.855 228.839,195.228 220.087 C 196.495 216.799,197.135 215.604,197.584 215.687 C 198.547 215.864,207.537 229.599,229.595 264.600 C 262.653 317.054,266.505 321.911,280.951 329.342 C 295.682 336.919,315.105 335.474,327.855 325.853 C 330.255 324.041,331.097 323.596,330.600 324.400 C 330.464 324.620,330.456 324.800,330.582 324.800 C 330.707 324.800,331.423 323.542,332.171 322.004 C 339.421 307.107,338.140 289.484,328.990 278.252 C 320.135 267.381,301.894 264.746,293.240 273.087 C 291.188 275.064,290.507 276.674,291.911 276.228 C 306.195 271.695,318.020 278.418,318.711 291.465 C 319.616 308.547,296.763 311.931,279.425 297.283 C 272.311 291.272,264.113 280.361,252.872 261.943 C 250.671 258.338,244.799 248.789,237.287 236.600 C 236.067 234.620,234.170 231.380,233.073 229.400 C 231.975 227.420,230.415 224.810,229.606 223.600 C 228.798 222.390,227.182 219.690,226.015 217.600 C 224.849 215.510,223.579 213.350,223.193 212.800 C 222.320 211.555,215.019 199.600,213.741 197.323 C 212.707 195.480,212.538 194.400,213.283 194.400 C 214.425 194.400,210.584 191.394,200.069 184.059 C 194.517 180.185,194.343 180.023,194.477 178.862 L 194.600 177.800 198.770 177.685 C 201.063 177.622,203.493 177.756,204.170 177.982 L 205.400 178.394 203.991 177.097 C 201.299 174.618,197.125 171.023,196.265 170.443 C 195.789 170.122,193.060 168.124,190.200 166.003 C 187.340 163.882,181.882 159.917,178.071 157.193 C 170.537 151.807,168.800 150.173,168.800 148.475 C 168.800 145.543,171.998 143.525,174.526 144.862 C 175.100 145.165,174.953 144.904,174.100 144.102 C 172.274 142.384,172.144 139.210,173.900 139.184 C 174.634 139.173,173.936 138.789,171.800 138.030 C 162.789 134.827,155.055 131.036,149.686 127.190 L 146.457 124.877 146.557 133.539 M298.380 138.943 C 296.994 139.439,292.400 142.296,292.400 142.663 C 292.400 142.764,292.608 142.718,292.863 142.561 C 293.192 142.357,293.239 142.553,293.025 143.237 C 290.033 152.796,294.107 160.515,308.301 172.178 C 310.998 174.394,311.412 175.259,309.656 175.008 C 309.295 174.957,309.210 174.989,309.466 175.080 C 311.612 175.842,310.126 176.886,306.571 177.115 C 294.741 177.874,281.324 171.225,273.527 160.739 C 271.206 157.619,270.932 157.515,269.723 159.303 C 264.347 167.258,269.641 175.642,282.901 180.172 C 289.017 182.262,289.902 182.678,290.649 183.818 C 293.214 187.733,285.610 188.105,275.400 184.565 C 266.020 181.312,265.051 181.084,261.600 181.323 C 255.151 181.768,254.102 182.877,258.300 184.812 C 269.669 190.053,269.714 197.892,258.400 202.030 C 248.891 205.508,244.780 211.832,245.498 221.877 C 245.656 224.078,245.512 225.286,244.850 227.335 C 243.759 230.713,243.744 230.565,245.469 233.392 C 248.350 238.113,248.044 238.122,249.807 233.265 C 256.229 215.564,266.187 204.256,281.006 197.837 C 287.395 195.070,291.821 194.125,304.600 192.804 C 318.460 191.371,323.603 190.539,330.800 188.569 C 334.419 187.578,342.081 187.080,359.078 186.731 L 359.956 186.713 359.042 185.256 C 357.824 183.317,355.974 182.363,350.000 180.594 C 340.820 177.877,337.305 176.109,333.991 172.545 C 332.996 171.475,330.162 169.029,327.695 167.108 C 321.775 162.501,317.224 156.205,316.196 151.200 C 315.712 148.846,315.485 148.661,314.264 149.621 C 308.897 153.843,312.794 161.041,325.700 170.743 C 331.823 175.345,321.263 174.709,313.180 169.989 C 303.008 164.048,297.279 152.025,299.961 142.249 C 301.054 138.266,300.940 138.028,298.380 138.943 M88.200 164.839 C 80.228 165.800,69.659 168.811,65.092 171.423 L 63.400 172.390 64.880 172.395 C 69.291 172.410,71.863 173.530,75.619 177.073 L 78.422 179.718 81.111 178.692 C 92.792 174.236,110.996 170.135,112.112 171.709 C 112.304 171.979,112.394 172.020,112.313 171.800 C 112.016 170.995,109.547 165.814,109.382 165.648 C 108.428 164.695,93.978 164.142,88.200 164.839 M116.308 181.107 C 116.088 181.951,109.165 184.796,107.304 184.806 C 106.501 184.811,106.354 184.910,106.764 185.169 C 107.198 185.444,106.899 185.828,105.464 186.840 C 104.439 187.563,103.600 188.317,103.600 188.516 C 103.600 188.715,102.462 190.075,101.072 191.539 C 86.261 207.130,76.178 228.661,74.936 247.355 C 74.617 252.152,75.197 252.428,76.875 248.278 C 81.772 236.165,89.698 226.406,94.642 226.401 C 96.478 226.400,98.400 227.791,98.400 229.122 C 98.400 229.778,94.632 242.094,94.228 242.758 C 93.970 243.183,92.436 250.866,91.825 254.800 C 91.500 256.890,91.104 259.050,90.945 259.600 C 90.659 260.588,90.664 260.591,91.428 259.827 C 92.191 259.063,92.203 259.108,92.477 263.627 C 93.055 273.146,94.269 280.656,96.579 289.000 C 97.127 290.980,97.594 293.050,97.616 293.600 C 97.650 294.441,97.703 294.482,97.947 293.861 C 98.289 292.993,98.505 293.221,99.979 296.000 C 115.656 325.571,152.083 340.839,183.400 330.967 C 189.740 328.968,201.575 323.600,201.885 322.582 C 202.059 322.009,199.379 317.649,197.197 314.957 C 194.709 311.888,188.333 306.614,185.313 305.127 C 183.931 304.447,182.800 303.714,182.800 303.498 C 182.800 303.281,182.400 303.224,181.900 303.371 C 158.778 310.150,131.641 296.121,125.023 273.966 C 119.508 255.503,124.617 237.319,139.689 221.764 C 144.525 216.772,144.542 217.826,139.529 211.806 C 139.159 211.363,137.989 209.899,136.929 208.554 C 135.868 207.209,134.041 204.959,132.868 203.554 C 130.441 200.646,130.423 200.623,128.030 197.391 C 127.056 196.076,125.782 194.370,125.200 193.600 C 123.729 191.657,119.416 185.198,117.824 182.556 C 116.804 180.862,116.459 180.532,116.308 181.107 " stroke="none" fill="#ffffff" fill-rule="evenodd"></path></g></svg>